<svg xmlns="http://www.w3.org/2000/svg" width="512" height="512"><path fill="#A7B7C1" d="M235.51 46.9c0 1.38-.24 2.78-.75 4.15l-32.83 88.67c-2.29 6.19-9.17 9.35-15.36 7.06-4.82-1.78-7.8-6.35-7.8-11.2 0-1.38.24-2.79.75-4.16l32.83-88.67c2.29-6.19 9.17-9.35 15.35-7.06 4.82 1.78 7.81 6.35 7.81 11.21z"/><path d="M235.51 46.9c0 1.38-.24 2.78-.75 4.15l-32.83 88.67c-2.29 6.19-9.17 9.35-15.36 7.06-.53-.2-1.04-.43-1.52-.69 2.48-1.32 4.5-3.53 5.55-6.37l32.83-88.67c.51-1.37.75-2.77.75-4.15 0-4.32-2.37-8.42-6.29-10.52 2.92-1.57 6.47-1.93 9.81-.69 4.82 1.78 7.81 6.35 7.81 11.21z" opacity=".2"/><path fill="#A7B7C1" d="M332.48 131.42c.51 1.37.75 2.78.75 4.16 0 4.85-2.98 9.42-7.8 11.2-6.19 2.29-13.07-.87-15.36-7.06l-32.83-88.67c-.51-1.37-.75-2.77-.75-4.15 0-4.86 2.99-9.43 7.81-11.21 6.18-2.29 13.06.87 15.35 7.06l32.83 88.67z"/><path fill="#526471" d="M359.62 239.1h96.41c6.89 0 12.47 5.58 12.47 12.47v4.16c0 6.88-5.58 12.47-12.47 12.47H55.97c-6.89 0-12.47-5.59-12.47-12.47v-4.16c0-6.89 5.58-12.47 12.47-12.47h303.65z"/><path d="M468.5 251.57v4.16c0 6.88-5.58 12.47-12.47 12.47H55.97c-6.89 0-12.47-5.59-12.47-12.47v-4.16c0-1.86.41-3.62 1.13-5.2 1.97 4.29 6.3 7.28 11.34 7.28h400.06c5.04 0 9.37-2.99 11.34-7.28a12.51 12.51 0 0 1 1.13 5.2z" opacity=".2"/><path fill="#303C44" d="m452.45 268.2-20.32 188.08c0 11.43-9.35 20.78-20.78 20.78h-310.7c-11.43 0-20.78-9.35-20.78-20.78L59.54 268.2h392.91z"/><path d="m452.45 268.2-20.32 188.08c0 11.43-9.35 20.78-20.78 20.78h-310.7c-11.43 0-20.78-9.35-20.78-20.78L59.54 268.2h1.84l18.49 171.08c0 11.43 9.35 20.78 20.78 20.78h310.7c11.43 0 20.78-9.35 20.78-20.78l18.48-171.08h1.84zM276.49 46.9c0 1.38.24 2.78.75 4.15l32.83 88.67c2.29 6.19 9.17 9.35 15.36 7.06.53-.2 1.04-.43 1.52-.69-2.48-1.32-4.5-3.53-5.55-6.37l-32.83-88.67c-.51-1.37-.75-2.77-.75-4.15 0-4.32 2.37-8.42 6.29-10.52-2.92-1.57-6.47-1.93-9.81-.69-4.82 1.78-7.81 6.35-7.81 11.21z" opacity=".2"/><path fill="none" d="m59.54 268.2 20.33 188.08c0 11.43 9.35 20.78 20.78 20.78h310.7c11.43 0 20.78-9.35 20.78-20.78l20.32-188.08"/><path fill="none" d="M359.62 239.1h96.41c6.89 0 12.47 5.58 12.47 12.47v4.16c0 6.88-5.58 12.47-12.47 12.47H55.97c-6.89 0-12.47-5.59-12.47-12.47v-4.16c0-6.89 5.58-12.47 12.47-12.47h303.65z"/><path fill="#303C44" d="M148.319 254.071a4 4 0 0 1-3.751-5.39l38.25-103.291a4 4 0 0 1 7.502 2.778l-38.25 103.289a3.999 3.999 0 0 1-3.751 2.614z"/><path fill="none" d="M201.93 139.72c-2.29 6.19-9.17 9.35-15.36 7.06-4.82-1.78-7.8-6.35-7.8-11.2 0-1.38.24-2.79.75-4.16l32.83-88.67c2.29-6.19 9.17-9.35 15.35-7.06 4.82 1.78 7.81 6.35 7.81 11.21 0 1.38-.24 2.78-.75 4.15l-32.83 88.67z"/><path fill="#303C44" d="M363.68 254.071a4 4 0 0 1-3.751-2.613l-38.25-103.289a4 4 0 1 1 7.502-2.778l38.25 103.291a4 4 0 0 1-3.751 5.389z"/><path fill="none" d="M310.07 139.72c2.29 6.19 9.17 9.35 15.36 7.06 4.82-1.78 7.8-6.35 7.8-11.2 0-1.38-.24-2.79-.75-4.16l-32.83-88.67c-2.29-6.19-9.17-9.35-15.35-7.06-4.82 1.78-7.81 6.35-7.81 11.21 0 1.38.24 2.78.75 4.15l32.83 88.67z"/><path fill="#ECEFF0" d="M256 450.92a4 4 0 0 1-4-4V298.33a4 4 0 0 1 8 0v148.59a4 4 0 0 1-4 4zM298.62 450.92a4 4 0 0 1-4-4V298.33a4 4 0 0 1 8 0v148.59a4 4 0 0 1-4 4zM341.23 450.92a4 4 0 0 1-4-4V298.33a4 4 0 0 1 8 0v148.59a4 4 0 0 1-4 4zM383.85 450.92a4 4 0 0 1-4-4V298.33a4 4 0 0 1 8 0v148.59a4 4 0 0 1-4 4zM128.15 450.92a4 4 0 0 1-4-4V298.33a4 4 0 0 1 8 0v148.59a4 4 0 0 1-4 4zM170.77 450.92a4 4 0 0 1-4-4V298.33a4 4 0 0 1 8 0v148.59a4 4 0 0 1-4 4zM213.38 450.92a4 4 0 0 1-4-4V298.33a4 4 0 0 1 8 0v148.59a4 4 0 0 1-4 4z"/></svg>